<svg width="21" height="21" viewBox="0 0 21 21" fill="none" xmlns="http://www.w3.org/2000/svg">
<path d="M18.1355 8.59214H11.025V0.931754C14.7374 1.37401 17.7429 4.53816 18.1355 8.59214ZM10.6845 0.899016L10.6846 0.899023L10.6845 0.899016ZM7.43829 11.3906V11.7475L7.68289 12.0074L13.2927 17.9682C12.0609 18.8255 10.602 19.3285 9.03471 19.3494L9.03466 19.3494C4.80107 19.4058 1.05301 15.6874 0.904833 11.0601C0.765053 6.68964 3.66437 3.08646 7.43829 2.32529V11.3906ZM13.5401 17.7889L13.5399 17.7891L13.5401 17.7889ZM12.8967 12.2906H19.3052C19.0122 14.0289 18.2308 15.58 17.1243 16.7826L12.8967 12.2906ZM19.3523 11.9779C19.3522 11.9785 19.3521 11.9791 19.3521 11.9797C19.3521 11.979 19.3522 11.9783 19.3523 11.9777L19.3523 11.9779Z" stroke="#718791" stroke-width="1.8"/>
</svg>
