<svg xmlns="http://www.w3.org/2000/svg" width="14.436" height="15.519" viewBox="0 0 14.436 15.519">
  <path id="_809574_attach_attachment_clipmark_office_icon" data-name="809574_attach_attachment_clipmark_office_icon" d="M15.114,3.88a3.278,3.278,0,0,0-4.656,0L4.833,9.441a1.966,1.966,0,1,0,2.78,2.78l4.656-4.656a.64.64,0,0,0-.905-.905L6.708,11.316a.64.64,0,0,1-.905-.905l5.626-5.626a1.966,1.966,0,1,1,2.78,2.78L8.584,13.127A3.292,3.292,0,0,1,3.928,8.471L11.364,1.1a.625.625,0,0,0,0-.905.625.625,0,0,0-.905,0L2.958,7.63a4.618,4.618,0,0,0,6.531,6.531L15.114,8.6A3.483,3.483,0,0,0,15.114,3.88Z" transform="translate(-1.6)" fill="#4d7cff"/>
</svg>
