<svg xmlns="http://www.w3.org/2000/svg" width="13.751" height="13.751" viewBox="0 0 13.751 13.751">
  <g id="Group_21549" data-name="Group 21549" transform="translate(0.14 0.14)">
    <g id="calendar_2_" data-name="calendar(2)">
      <path id="Path_18546" data-name="Path 18546" d="M11.734,1.052h-1.21V.421a.421.421,0,0,0-.842,0v.631H3.789V.421a.421.421,0,0,0-.842,0v.631H1.736A1.738,1.738,0,0,0,0,2.789v8.945a1.738,1.738,0,0,0,1.736,1.736h10a1.738,1.738,0,0,0,1.736-1.736V2.789A1.738,1.738,0,0,0,11.734,1.052Zm-10,.842h1.21v.421a.421.421,0,0,0,.842,0V1.894H9.682v.421a.421.421,0,0,0,.842,0V1.894h1.21a.9.9,0,0,1,.895.895v1H.842v-1A.9.9,0,0,1,1.736,1.894Zm10,10.734h-10a.9.9,0,0,1-.895-.895v-7.1H12.629v7.1A.9.9,0,0,1,11.734,12.629Z" fill="#384a52" stroke="#384a52" stroke-width="0.28"/>
    </g>
    <rect id="Rectangle_24188" data-name="Rectangle 24188" width="7" height="1" rx="0.5" transform="translate(3.432 8)" fill="#384a52"/>
  </g>
</svg>
