<svg xmlns="http://www.w3.org/2000/svg" width="18.906" height="18.906" viewBox="0 0 18.906 18.906">
  <path id="category" d="M12.433,0h2.843a2.14,2.14,0,0,1,2.13,2.15V5.017a2.141,2.141,0,0,1-2.13,2.15H12.433A2.141,2.141,0,0,1,10.3,5.017V2.15A2.141,2.141,0,0,1,12.433,0ZM2.131,0H4.973A2.141,2.141,0,0,1,7.1,2.15V5.017a2.141,2.141,0,0,1-2.131,2.15H2.131A2.141,2.141,0,0,1,0,5.017V2.15A2.141,2.141,0,0,1,2.131,0Zm0,10.24H4.973A2.141,2.141,0,0,1,7.1,12.391v2.866a2.141,2.141,0,0,1-2.131,2.15H2.131A2.141,2.141,0,0,1,0,15.256V12.391A2.141,2.141,0,0,1,2.131,10.24Zm10.3,0h2.843a2.141,2.141,0,0,1,2.13,2.151v2.866a2.14,2.14,0,0,1-2.13,2.15H12.433a2.141,2.141,0,0,1-2.131-2.15V12.391A2.141,2.141,0,0,1,12.433,10.24Z" transform="translate(0.75 0.75)" fill="none" stroke="#718791" stroke-linecap="round" stroke-linejoin="round" stroke-width="1.5" fill-rule="evenodd"/>
</svg>
