<svg width="21" height="17" viewBox="0 0 21 17" fill="none" xmlns="http://www.w3.org/2000/svg">
<path d="M13.1625 11.3333H14.6813C14.9344 11.3333 15.1875 11.05 15.1875 10.7667V4.81667C15.1875 4.53333 14.9344 4.25 14.6813 4.25H13.1625C12.9094 4.25 12.6563 4.53333 12.6563 4.81667V10.7667C12.6563 11.05 12.9094 11.3333 13.1625 11.3333ZM16.9594 11.3333H18.4781C18.7313 11.3333 18.9844 11.05 18.9844 10.7667V0.566667C18.9844 0.283333 18.7313 0 18.4781 0H16.9594C16.7063 0 16.4531 0.283333 16.4531 0.566667V10.7667C16.4531 11.05 16.7063 11.3333 16.9594 11.3333ZM5.56875 11.3333H7.0875C7.34063 11.3333 7.59375 11.05 7.59375 10.7667V7.65C7.59375 7.36667 7.34063 7.08333 7.0875 7.08333H5.56875C5.31563 7.08333 5.0625 7.36667 5.0625 7.65V10.7667C5.0625 11.05 5.31563 11.3333 5.56875 11.3333ZM9.36563 11.3333H10.8844C11.1375 11.3333 11.3906 11.05 11.3906 10.7667V1.98333C11.3906 1.7 11.1375 1.41667 10.8844 1.41667H9.36563C9.1125 1.41667 8.85938 1.7 8.85938 1.98333V10.7667C8.85938 11.05 9.1125 11.3333 9.36563 11.3333ZM19.6172 14.1667H2.53125V0.708333C2.53125 0.316979 2.24807 0 1.89844 0H0.632813C0.283184 0 0 0.316979 0 0.708333V15.5833C0 16.3656 0.566763 17 1.26563 17H19.6172C19.9668 17 20.25 16.683 20.25 16.2917V14.875C20.25 14.4836 19.9668 14.1667 19.6172 14.1667Z" fill="#718791"/>
</svg>
