<svg id="dollar" xmlns="http://www.w3.org/2000/svg" width="19.131" height="19.131" viewBox="0 0 19.131 19.131">
  <path id="Path_37761" data-name="Path 37761" d="M9.565,19.131a9.565,9.565,0,1,1,9.565-9.565A9.594,9.594,0,0,1,9.565,19.131Zm0-17.537a7.971,7.971,0,1,0,7.971,7.971A7.995,7.995,0,0,0,9.565,1.594Z" fill="#fff"/>
  <path id="Path_37762" data-name="Path 37762" d="M11.188,11.58A3.137,3.137,0,0,1,8.08,9.348,1.182,1.182,0,0,1,8,8.79,3.032,3.032,0,0,1,11.188,6a3.032,3.032,0,0,1,3.188,2.79,1.182,1.182,0,0,1-.08.558.783.783,0,1,1-1.515-.4V8.71c0-.558-.717-1.116-1.594-1.116s-1.594.558-1.594,1.2v.239a1.567,1.567,0,0,0,1.594.957.8.8,0,1,1,0,1.594Z" transform="translate(-1.623 -1.217)" fill="#fff"/>
  <path id="Path_37763" data-name="Path 37763" d="M11.188,16.6A3.032,3.032,0,0,1,8,13.81a1.182,1.182,0,0,1,.08-.558.783.783,0,0,1,1.515.4v.239c0,.638.717,1.2,1.594,1.2s1.594-.558,1.594-1.2v-.239a1.567,1.567,0,0,0-1.594-.957.8.8,0,0,1,0-1.594A3.137,3.137,0,0,1,14.3,13.332c.08.08.08.239.08.478A3.032,3.032,0,0,1,11.188,16.6Z" transform="translate(-1.623 -2.252)" fill="#fff"/>
  <path id="Path_37764" data-name="Path 37764" d="M11.8,16.754a.753.753,0,0,1-.8-.8V14.363a.8.8,0,1,1,1.594,0v1.594A.753.753,0,0,1,11.8,16.754Zm0-9.565a.753.753,0,0,1-.8-.8V4.8a.8.8,0,1,1,1.594,0V6.391A.753.753,0,0,1,11.8,7.188ZM14.188,9.58a.817.817,0,0,1-.8-.8.724.724,0,0,1,.239-.558.771.771,0,0,1,1.116,0,.771.771,0,0,1,0,1.116A.724.724,0,0,1,14.188,9.58Z" transform="translate(-2.232 -0.812)" fill="#fff"/>
</svg>
