<svg xmlns="http://www.w3.org/2000/svg" width="19.429" height="19.429" viewBox="0 0 19.429 19.429">
  <path id="dollar-coin" d="M9.831,8.065h3.532a.883.883,0,0,0,0-1.766H11.6V5.416a.883.883,0,1,0-1.766,0V6.3a2.649,2.649,0,0,0,0,5.3H11.6a.883.883,0,0,1,0,1.766H8.065a.883.883,0,1,0,0,1.766H9.831v.883a.883.883,0,1,0,1.766,0V15.13a2.649,2.649,0,1,0,0-5.3H9.831a.883.883,0,0,1,0-1.766ZM10.714,1a9.714,9.714,0,1,0,9.714,9.714A9.714,9.714,0,0,0,10.714,1Zm0,17.662a7.948,7.948,0,1,1,7.948-7.948,7.948,7.948,0,0,1-7.948,7.948Z" transform="translate(-1 -1)" fill="#718791"/>
</svg>
