<svg width="22" height="22" viewBox="0 0 22 22" fill="none" xmlns="http://www.w3.org/2000/svg">
<path d="M19.0159 10.1792C19.2772 10.5453 19.4078 10.7292 19.4078 10.9999C19.4078 11.2715 19.2772 11.4546 19.0159 11.8207C17.8419 13.4674 14.8433 17.0161 10.8133 17.0161C6.78255 17.0161 3.78481 13.4665 2.61081 11.8207C2.34954 11.4546 2.2189 11.2707 2.2189 10.9999C2.2189 10.7284 2.34954 10.5453 2.61081 10.1792C3.78481 8.53247 6.78341 4.98383 10.8133 4.98383C14.8441 4.98383 17.8419 8.53333 19.0159 10.1792Z" stroke="black" stroke-width="1.58667" stroke-linecap="round" stroke-linejoin="round"/>
<path d="M13.3917 11C13.3917 10.3161 13.12 9.66034 12.6365 9.17681C12.1529 8.69328 11.4971 8.42163 10.8133 8.42163C10.1295 8.42163 9.47369 8.69328 8.99016 9.17681C8.50663 9.66034 8.23499 10.3161 8.23499 11C8.23499 11.6838 8.50663 12.3396 8.99016 12.8231C9.47369 13.3067 10.1295 13.5783 10.8133 13.5783C11.4971 13.5783 12.1529 13.3067 12.6365 12.8231C13.12 12.3396 13.3917 11.6838 13.3917 11Z" stroke="black" stroke-width="1.58667" stroke-linecap="round" stroke-linejoin="round"/>
</svg>
