<svg xmlns="http://www.w3.org/2000/svg" width="20" height="20.032" viewBox="0 0 20 20.032">
  <g id="Group_16592" data-name="Group 16592" transform="translate(-63.065 -1038.661)">
    <rect id="Rectangle_147" data-name="Rectangle 147" width="18" height="17.998" rx="5" transform="translate(64.065 1040.695)" fill="#fff"/>
    <g id="Group_269" data-name="Group 269" transform="translate(63.065 1038.661)">
      <path id="Path_34" data-name="Path 34" d="M1727.958,7815.566h-14.61a2.7,2.7,0,0,0-2.695,2.694v14.61a2.7,2.7,0,0,0,2.695,2.694h7.206l.012-7.147h-1.857a.438.438,0,0,1-.437-.436l-.009-2.3a.438.438,0,0,1,.437-.441h1.854v-2.226a3.636,3.636,0,0,1,3.882-3.989h1.89a.438.438,0,0,1,.439.437v1.942a.438.438,0,0,1-.439.438l-1.159,0c-1.254,0-1.5.594-1.5,1.469v1.926h2.754a.44.44,0,0,1,.436.49l-.274,2.3a.435.435,0,0,1-.434.386h-2.468l-.014,7.147h4.288a2.7,2.7,0,0,0,2.695-2.694v-14.61A2.7,2.7,0,0,0,1727.958,7815.566Z" transform="translate(-1710.653 -7815.566)" fill="#4966b6"/>
    </g>
  </g>
</svg>
