<svg xmlns="http://www.w3.org/2000/svg" width="18" height="22" viewBox="0 0 18 22">
  <g id="file_1_" data-name="file (1)" transform="translate(1 1)">
    <path id="Path_37409" data-name="Path 37409" d="M2-1h8a1,1,0,0,1,.707.293l6,6A1,1,0,0,1,17,6V18a3,3,0,0,1-3,3H2a3,3,0,0,1-3-3V2A3,3,0,0,1,2-1ZM9.586,1H2A1,1,0,0,0,1,2V18a1,1,0,0,0,1,1H14a1,1,0,0,0,1-1V6.414Z" fill="#718791"/>
    <path id="Path_37410" data-name="Path 37410" d="M11,14H5a1,1,0,0,1,0-2h6a1,1,0,0,1,0,2Zm5-7H10a1,1,0,0,1,0-2h6a1,1,0,0,1,0,2Z" fill="#718791"/>
  </g>
</svg>
