<svg xmlns="http://www.w3.org/2000/svg" width="18.609" height="18.609" viewBox="0 0 18.609 18.609">
  <g id="Group_30030" data-name="Group 30030" transform="translate(9206.5 10883.525)">
    <path id="Path_37768" data-name="Path 37768" d="M17.62,20.859H5.5A3.246,3.246,0,0,1,2.25,17.613V5.49A3.246,3.246,0,0,1,5.5,2.25H17.62a3.24,3.24,0,0,1,3.24,3.24V17.613a3.246,3.246,0,0,1-3.24,3.246ZM5.5,3.775A1.715,1.715,0,0,0,3.775,5.49V17.613A1.721,1.721,0,0,0,5.5,19.334H17.62a1.715,1.715,0,0,0,1.715-1.721V5.49A1.715,1.715,0,0,0,17.62,3.775Z" transform="translate(-9208.75 -10885.775)" fill="#718791"/>
    <g id="Group_30030-2" data-name="Group 30030" transform="translate(4.116 1.696)">
      <path id="list" d="M1.548,7.386h3.29a.548.548,0,0,0,.548-.548V3.548A.548.548,0,0,0,4.838,3H1.548A.548.548,0,0,0,1,3.548v3.29a.548.548,0,0,0,.548.548ZM2.1,4.1H4.29V6.29H2.1Zm10.418.548H7.031a.548.548,0,1,0,0,1.1h5.483a.548.548,0,1,0,0-1.1Z" transform="translate(-9208.343 -10884.016)" fill="#718791"/>
      <path id="list-2" data-name="list" d="M1.548,7.386h3.29a.548.548,0,0,0,.548-.548V3.548A.548.548,0,0,0,4.838,3H1.548A.548.548,0,0,0,1,3.548v3.29a.548.548,0,0,0,.548.548ZM2.1,4.1H4.29V6.29H2.1Zm10.418.548H7.031a.548.548,0,1,0,0,1.1h5.483a.548.548,0,1,0,0-1.1Z" transform="translate(-9208.343 -10878.206)" fill="#718791"/>
    </g>
  </g>
</svg>
