<svg id="_2609558_instagram_social_media_social_icon" data-name="2609558_instagram_social media_social_icon" xmlns="http://www.w3.org/2000/svg" xmlns:xlink="http://www.w3.org/1999/xlink" width="20.148" height="20.148" viewBox="0 0 20.148 20.148">
  <defs>
    <radialGradient id="radial-gradient" cx="0.293" cy="1.077" r="1.325" gradientUnits="objectBoundingBox">
      <stop offset="0.097" stop-color="#ffd87a"/>
      <stop offset="0.143" stop-color="#fcce78"/>
      <stop offset="0.226" stop-color="#f5b471"/>
      <stop offset="0.338" stop-color="#eb8d65"/>
      <stop offset="0.449" stop-color="#e36058"/>
      <stop offset="0.679" stop-color="#cd3694"/>
      <stop offset="1" stop-color="#6668b0"/>
    </radialGradient>
  </defs>
  <path id="Path_31730" data-name="Path 31730" d="M20.148,15.548a4.6,4.6,0,0,1-4.6,4.6H4.6a4.6,4.6,0,0,1-4.6-4.6V4.6A4.6,4.6,0,0,1,4.6,0H15.477a4.669,4.669,0,0,1,4.671,4.671Z" fill="url(#radial-gradient)"/>
  <g id="Group_16870" data-name="Group 16870" transform="translate(2.774 2.778)">
    <path id="Path_31731" data-name="Path 31731" d="M80.6,70.6H75a4.5,4.5,0,0,0-4.5,4.5v5.6A4.493,4.493,0,0,0,75,85.191h5.6A4.492,4.492,0,0,0,85.091,80.7V75.1A4.487,4.487,0,0,0,80.6,70.6Zm3.093,9.558a3.631,3.631,0,0,1-3.632,3.632H75.537A3.631,3.631,0,0,1,71.9,80.158V75.633A3.631,3.631,0,0,1,75.537,72h4.525a3.633,3.633,0,0,1,3.632,3.632Z" transform="translate(-70.5 -70.6)" fill="#fff"/>
    <path id="Path_31732" data-name="Path 31732" d="M167.145,159a3.845,3.845,0,1,0,3.845,3.845A3.843,3.843,0,0,0,167.145,159Zm0,6.155a2.314,2.314,0,1,1,2.314-2.314A2.313,2.313,0,0,1,167.145,165.155Z" transform="translate(-159.648 -155.521)" fill="#fff"/>
    <path id="Path_31733" data-name="Path 31733" d="M329.052,133.58a.976.976,0,1,1-.976-.98A.976.976,0,0,1,329.052,133.58Z" transform="translate(-317.003 -130.16)" fill="#fff"/>
  </g>
</svg>
