<svg xmlns="http://www.w3.org/2000/svg" width="10.753" height="10.753" viewBox="0 0 10.753 10.753">
  <path id="Path_37570" data-name="Path 37570" d="M168.607,51.19c1.437,0,1.6,0,2.174.029a2.962,2.962,0,0,1,1,.182,1.654,1.654,0,0,1,.62.4,1.6,1.6,0,0,1,.4.62,2.962,2.962,0,0,1,.182,1c.029.569.029.737.029,2.174s0,1.6-.029,2.174a2.962,2.962,0,0,1-.182,1,1.654,1.654,0,0,1-.4.62,1.6,1.6,0,0,1-.62.4,2.962,2.962,0,0,1-1,.182c-.569.029-.737.029-2.174.029s-1.6,0-2.174-.029a2.962,2.962,0,0,1-1-.182,1.654,1.654,0,0,1-.62-.4,1.6,1.6,0,0,1-.4-.62,2.963,2.963,0,0,1-.182-1c-.029-.569-.029-.737-.029-2.174s0-1.6.029-2.174a2.963,2.963,0,0,1,.182-1,1.654,1.654,0,0,1,.4-.62,1.6,1.6,0,0,1,.62-.4,2.962,2.962,0,0,1,1-.182c.569-.029.737-.029,2.174-.029m0-.97c-1.459,0-1.641,0-2.218.029a4.063,4.063,0,0,0-1.306.248,2.735,2.735,0,0,0-1.576,1.576,3.912,3.912,0,0,0-.248,1.306c-.029.576-.029.759-.029,2.218s0,1.641.029,2.218a4.063,4.063,0,0,0,.248,1.306,2.692,2.692,0,0,0,.62.956,2.629,2.629,0,0,0,.956.62,3.912,3.912,0,0,0,1.306.248c.576.029.759.029,2.218.029s1.641,0,2.218-.029a4.063,4.063,0,0,0,1.306-.248,2.735,2.735,0,0,0,1.576-1.576,3.911,3.911,0,0,0,.248-1.306c.029-.576.029-.759.029-2.218s0-1.641-.029-2.218a4.062,4.062,0,0,0-.248-1.306A2.735,2.735,0,0,0,172.13,50.5a3.911,3.911,0,0,0-1.306-.248c-.576-.029-.759-.029-2.218-.029" transform="translate(-163.23 -50.22)" fill="#fff"/>
</svg>
