<svg xmlns="http://www.w3.org/2000/svg" xmlns:xlink="http://www.w3.org/1999/xlink" version="1.1" width="19.391" height="12.449" viewBox="0 0 1000 1000" xml:space="preserve">
<desc>Created with Fabric.js 3.5.0</desc>
<defs>
</defs>
<rect x="0" y="0" width="100%" height="100%" fill="#ffffff"/>
<g transform="matrix(-46.8821 0 0 46.8821 499.9999 499.9999)" id="575241">
<g style="" vector-effect="non-scaling-stroke">
		<g transform="matrix(-1 0 0 -1 -0.0254 -0.0138)" id="Path_18487">
<path style="stroke: #384A52; stroke-width: 1; stroke-dasharray: none; stroke-linecap: butt; stroke-dashoffset: 0; stroke-linejoin: miter; stroke-miterlimit: 4; is-custom-font: none; font-file-url: none; fill: rgb(77,124,255); fill-rule: nonzero; opacity: 1;" transform=" translate(-9.1839, -59.0213)" d="M 18.055 58.7 H 1.031 L 5.9 53.833 a 0.3 0.3 0 0 0 -0.422 -0.423 L 0.1 58.789 a 0.3 0.3 0 0 0 0 0.423 h 0 l 5.378 5.378 a 0.3 0.3 0 1 0 0.43 -0.415 L 5.9 64.168 L 1.031 59.3 H 18.055 a 0.3 0.3 0 0 0 0 -0.6 Z" stroke-linecap="round"/>
</g>
		<g transform="matrix(-1 0 0 -1 6.1602 -0.0011)" id="Path_18488">
<path style="stroke: #384A52; stroke-width: 1; stroke-dasharray: none; stroke-linecap: butt; stroke-dashoffset: 0; stroke-linejoin: miter; stroke-miterlimit: 4; is-custom-font: none; font-file-url: none; fill: rgb(77,124,255); fill-rule: nonzero; opacity: 1;" transform=" translate(-2.9873, -59.0087)" d="M 5.678 64.677 a 0.3 0.3 0 0 1 -0.212 -0.087 L 0.087 59.212 a 0.3 0.3 0 0 1 0 -0.423 l 5.378 -5.379 a 0.3 0.3 0 0 1 0.423 0.422 L 0.722 59 l 5.167 5.167 a 0.3 0.3 0 0 1 -0.211 0.51 Z" stroke-linecap="round"/>
</g>
</g>
</g>
</svg>