<svg xmlns="http://www.w3.org/2000/svg" width="19.391" height="12.449" viewBox="0 0 19.391 12.449">
  <g id="left-arrow_5_" data-name="left-arrow(5)" transform="translate(18.843 65.232) rotate(180)">
    <path id="Path_18487" data-name="Path 18487" d="M18.055,58.7H1.031L5.9,53.833a.3.3,0,0,0-.422-.423L.1,58.789a.3.3,0,0,0,0,.423h0l5.378,5.378a.3.3,0,1,0,.43-.415L5.9,64.168,1.031,59.3H18.055a.3.3,0,0,0,0-.6Z" transform="translate(-0.011 0)" fill="#4d7cff" stroke="#4d7cff" stroke-width="1"/>
    <path id="Path_18488" data-name="Path 18488" d="M5.678,64.677a.3.3,0,0,1-.212-.087L.087,59.212a.3.3,0,0,1,0-.423l5.378-5.379a.3.3,0,0,1,.423.422L.722,59l5.167,5.167a.3.3,0,0,1-.211.51Z" fill="#4d7cff" stroke="#4d7cff" stroke-width="1"/>
  </g>
</svg>
