<svg xmlns="http://www.w3.org/2000/svg" width="10.439" height="9.972" viewBox="0 0 10.439 9.972">
  <path id="Path_37567" data-name="Path 37567" d="M87.935,56.876v3.859H85.7v-3.6c0-.9-.321-1.517-1.131-1.517a1.218,1.218,0,0,0-1.145.817,1.554,1.554,0,0,0-.073.547v3.757H81.121s.029-6.091,0-6.726h2.24v.956a.1.1,0,0,1-.015.022h.015v-.022a2.213,2.213,0,0,1,2.013-1.109c1.474,0,2.575.963,2.575,3.027h0ZM78.772,50.77a1.164,1.164,0,0,0-1.262,1.16,1.151,1.151,0,0,0,1.233,1.16h.015a1.164,1.164,0,1,0,.015-2.32Zm-1.131,9.965h2.232V54.009H77.641Z" transform="translate(-77.51 -50.77)" fill="#eeefef"/>
</svg>
