<svg xmlns="http://www.w3.org/2000/svg" width="17" height="21.25" viewBox="0 0 17 21.25">
  <g id="list" transform="translate(-4 -2)">
    <path id="Path_37413" data-name="Path 37413" d="M21,19V7.313a4.334,4.334,0,0,0-3.187-4.144V3.063a1.063,1.063,0,0,0-2.125,0H13.563a1.063,1.063,0,0,0-2.125,0H9.313A1,1,0,0,0,8.25,2,1,1,0,0,0,7.188,3.063v.106A4.334,4.334,0,0,0,4,7.313V19a4.262,4.262,0,0,0,4.25,4.25h8.5A4.262,4.262,0,0,0,21,19Zm-2.125,0a2.131,2.131,0,0,1-2.125,2.125H8.25A2.131,2.131,0,0,1,6.125,19V7.313A1.861,1.861,0,0,1,7.294,5.506a.931.931,0,0,0,.956.744A1,1,0,0,0,9.313,5.188h2.125a1.063,1.063,0,0,0,2.125,0h2.125A1,1,0,0,0,16.75,6.25a.931.931,0,0,0,.956-.744,1.861,1.861,0,0,1,1.169,1.806Z" fill="#718791"/>
    <path id="Path_37414" data-name="Path 37414" d="M11.188,14.25H9.063a1.063,1.063,0,0,0,0,2.125h2.125a1.063,1.063,0,0,0,0-2.125ZM14.375,10H9.063A1,1,0,0,0,8,11.063a1,1,0,0,0,1.063,1.063h5.313a1,1,0,0,0,1.063-1.062A1,1,0,0,0,14.375,10Z" transform="translate(0.25 0.5)" fill="#718791"/>
  </g>
</svg>
