<svg xmlns="http://www.w3.org/2000/svg" width="18.609" height="18.609" viewBox="0 0 18.609 18.609">
  <g id="order" transform="translate(-2.25 -2.25)">
    <path id="Path_37411" data-name="Path 37411" d="M17.62,20.859H5.5A3.246,3.246,0,0,1,2.25,17.613V5.49A3.246,3.246,0,0,1,5.5,2.25H17.62a3.24,3.24,0,0,1,3.24,3.24V17.613a3.246,3.246,0,0,1-3.24,3.246ZM5.5,3.775A1.715,1.715,0,0,0,3.775,5.49V17.613A1.721,1.721,0,0,0,5.5,19.334H17.62a1.715,1.715,0,0,0,1.715-1.721V5.49A1.715,1.715,0,0,0,17.62,3.775Z" fill="#718791"/>
    <path id="Path_37412" data-name="Path 37412" d="M11.66,12.317a1.477,1.477,0,0,1-.61-.134,1.519,1.519,0,0,1-.891-1.4V3.013a.763.763,0,1,1,1.525,0v7.773l1.434-1.269a1.47,1.47,0,0,1,1.959,0l1.47,1.275L16.5,3.013a.763.763,0,0,1,1.525,0v7.773a1.519,1.519,0,0,1-.891,1.4,1.47,1.47,0,0,1-1.592-.238l-1.452-1.257-1.452,1.263a1.47,1.47,0,0,1-.976.366ZM14.064,10.67ZM14.119,10.67ZM15,17.089H9.513a.763.763,0,1,1,0-1.525H15a.763.763,0,1,1,0,1.525Z" transform="translate(-2.534)" fill="#718791"/>
  </g>
</svg>
