<svg xmlns="http://www.w3.org/2000/svg" width="20.026" height="17.276" viewBox="0 0 20.026 17.276">
  <path id="package" d="M1,5.186v9.973a1.351,1.351,0,0,0,1,1.3l8.678,2.31a1.138,1.138,0,0,0,.668,0l8.678-2.31a1.351,1.351,0,0,0,1-1.3V5.186a1.351,1.351,0,0,0-1-1.3L11.347,1.568a1.869,1.869,0,0,0-.668,0L2,3.891A1.351,1.351,0,0,0,1,5.186Zm9.346,12.136L2.335,15.2V6.16L10.346,8.31ZM2.335,4.825l3.338-.895,8.678,2.31-3.338.895ZM19.691,15.2l-8.011,2.123V8.31l2.67-.734v3.258l2.67-.708V6.868l2.67-.708Zm-2.67-9.666L8.343,3.223l2.67-.708,8.678,2.31-2.67.708Z" transform="translate(-1 -1.537)" fill="#718791" fill-rule="evenodd"/>
</svg>
