<svg xmlns="http://www.w3.org/2000/svg" xmlns:xlink="http://www.w3.org/1999/xlink" width="30" height="30" viewBox="0 0 30 30">
  <defs>
    <clipPath id="clip-password">
      <rect width="30" height="30"/>
    </clipPath>
  </defs>
  <g id="password" clip-path="url(#clip-password)">
    <path id="Path_37876" data-name="Path 37876" d="M298.571,250.082c-5.642,0-10.757,3.086-14.532,8.1a1.168,1.168,0,0,0,0,1.395c3.775,5.019,8.89,8.106,14.532,8.106s10.756-3.087,14.531-8.1a1.168,1.168,0,0,0,0-1.395C309.327,253.168,304.212,250.082,298.571,250.082Zm.4,15a6.21,6.21,0,1,1,5.792-5.792A6.213,6.213,0,0,1,298.975,265.078Zm-.187-2.862a3.344,3.344,0,1,1,3.123-3.123A3.339,3.339,0,0,1,298.788,262.216Z" transform="translate(-283.57 -243.882)" fill="#718791"/>
  </g>
</svg>
