<svg id="Layer_2" data-name="Layer 2" xmlns="http://www.w3.org/2000/svg" width="12.614" height="12.614" viewBox="0 0 12.614 12.614">
  <g id="phone" transform="translate(0 0)">
    <rect id="Rectangle_34010" data-name="Rectangle 34010" width="12.614" height="12.614" fill="#8dadba" opacity="0"/>
    <path id="Path_37547" data-name="Path 37547" d="M9.728,12.036A7.738,7.738,0,0,1,2,4.308,2.308,2.308,0,0,1,4.308,2a1.977,1.977,0,0,1,.386.035,1.9,1.9,0,0,1,.361.09.5.5,0,0,1,.326.376L6.07,5.513a.5.5,0,0,1-.13.462c-.065.07-.07.075-.687.4A4.973,4.973,0,0,0,7.7,8.825c.326-.622.331-.627.4-.693A.5.5,0,0,1,8.559,8l3.011.687a.5.5,0,0,1,.361.326,2.178,2.178,0,0,1,.1.366,2.394,2.394,0,0,1,.03.381A2.308,2.308,0,0,1,9.728,12.036Z" transform="translate(-0.731 -0.731)" fill="#8dadba"/>
  </g>
</svg>
