<svg xmlns="http://www.w3.org/2000/svg" width="8.575" height="11.024" viewBox="0 0 8.575 11.024">
  <path id="Path_37566" data-name="Path 37566" d="M212.708,58.035a3.04,3.04,0,0,1-1.481-.7c-.292,1.517-.642,2.969-1.692,3.728-.321-2.291.474-4.012.846-5.843-.635-1.065.073-3.2,1.408-2.677,1.641.649-1.423,3.954.635,4.363,2.145.43,3.02-3.721,1.692-5.07-1.919-1.948-5.588-.044-5.136,2.743.109.678.817.89.285,1.831-1.233-.27-1.6-1.24-1.547-2.531a4.135,4.135,0,0,1,3.735-3.8c2.313-.263,4.487.854,4.786,3.027.336,2.458-1.043,5.121-3.524,4.932h0Z" transform="translate(-207.714 -50.038)" fill="#eeefef"/>
</svg>
