<svg xmlns="http://www.w3.org/2000/svg" width="20.69" height="20.725" viewBox="0 0 20.69 20.725">
  <path id="pinterest" d="M10.786,0A10.349,10.349,0,0,0,6.648,19.834a9.231,9.231,0,0,1,.178-2.39c.214-.856,1.32-5.636,1.32-5.636a4.183,4.183,0,0,1-.321-1.641c0-1.534.892-2.675,2-2.675a1.4,1.4,0,0,1,1.391,1.57,22.1,22.1,0,0,1-.927,3.674,1.6,1.6,0,0,0,1.641,2c1.962,0,3.282-2.533,3.282-5.493,0-2.283-1.534-3.96-4.316-3.96a4.914,4.914,0,0,0-5.1,4.958,2.969,2.969,0,0,0,.678,2.033.506.506,0,0,1,.143.571c-.036.178-.178.642-.214.82a.366.366,0,0,1-.535.25c-1.463-.606-2.1-2.176-2.1-3.96C3.758,7.027,6.22,3.5,11.143,3.5c3.96,0,6.564,2.854,6.564,5.922,0,4.067-2.247,7.1-5.565,7.1a3,3,0,0,1-2.533-1.284S9,17.622,8.9,18.086A8.42,8.42,0,0,1,7.861,20.3a10.007,10.007,0,0,0,2.925.428A10.363,10.363,0,0,0,10.786,0" transform="translate(-0.441)" fill="#cb1f24"/>
</svg>
