<svg width="22" height="9" viewBox="0 0 22 9" fill="none" xmlns="http://www.w3.org/2000/svg">
<path d="M17.4755 0.496711C17.6485 0.495935 17.8153 0.559901 17.9421 0.675634L21.748 4.15469C21.8137 4.21419 21.8661 4.28642 21.9019 4.36683C21.9377 4.44724 21.9562 4.53409 21.9562 4.62188C21.9562 4.70967 21.9377 4.79652 21.9019 4.87693C21.8661 4.95734 21.8137 5.02957 21.748 5.08907L17.9421 8.56813C17.815 8.68321 17.6486 8.7471 17.4759 8.7471C17.3032 8.7471 17.1368 8.68321 17.0097 8.56813C16.9441 8.50863 16.8917 8.43639 16.8559 8.35598C16.82 8.27558 16.8015 8.18873 16.8015 8.10094C16.8015 8.01314 16.82 7.9263 16.8559 7.84589C16.8917 7.76548 16.9441 7.69325 17.0097 7.63375L19.5987 5.26468H1.187C1.01067 5.26645 0.840794 5.19947 0.714532 5.07839C0.588269 4.95731 0.515892 4.79199 0.513229 4.61857C0.515892 4.44515 0.588269 4.27982 0.714532 4.15874C0.840794 4.03766 1.01067 3.97068 1.187 3.97246H19.5979L17.0089 1.61084C16.9433 1.55108 16.8909 1.4787 16.855 1.39819C16.8191 1.31767 16.8003 1.23075 16.8 1.14282C16.8005 1.05503 16.8192 0.96827 16.8552 0.887906C16.8911 0.807543 16.9434 0.735293 17.0089 0.675634C17.1357 0.559901 17.3025 0.495935 17.4755 0.496711Z" fill="white"/>
</svg>
