<svg xmlns="http://www.w3.org/2000/svg" width="20.25" height="20.248" viewBox="0 0 20.25 20.248">
  <path id="settings" d="M10.412.265a2.765,2.765,0,0,0-2.49,1.528l-.435.87q-.257.1-.507.209l-.922-.307a2.758,2.758,0,0,0-3.49,3.492l.307.921c-.077.168-.149.338-.214.511l-.867.433a2.757,2.757,0,0,0,0,4.936l.872.439q.1.257.209.507l-.306.921a2.758,2.758,0,0,0,3.49,3.49l.921-.306c.168.077.338.147.511.212l.433.865a2.758,2.758,0,0,0,4.938,0l.433-.867q.26-.1.514-.21l.917.306a2.758,2.758,0,0,0,3.49-3.492l-.306-.921q.115-.251.212-.509l.867-.435a2.757,2.757,0,0,0,0-4.936l-.87-.435q-.1-.259-.209-.511l.306-.919v0a2.758,2.758,0,0,0-3.49-3.49l-.922.307q-.251-.114-.509-.212l-.433-.867A2.763,2.763,0,0,0,10.412.265ZM10.4,2.106a.917.917,0,0,1,.815.511L11.8,3.786a.921.921,0,0,0,.543.466,6.426,6.426,0,0,1,1.007.417.921.921,0,0,0,.714.058L15.3,4.313h0a.915.915,0,0,1,1.16,1.162s0,0,0,0l-.412,1.239a.921.921,0,0,0,.054.708,6.446,6.446,0,0,1,.412,1.009.921.921,0,0,0,.467.548l1.176.588a.915.915,0,0,1,0,1.642h0l-1.169.586a.921.921,0,0,0-.464.543,6.44,6.44,0,0,1-.419,1.007.921.921,0,0,0-.058.716l.414,1.242a.915.915,0,0,1-1.16,1.162h0l-1.239-.412a.921.921,0,0,0-.71.054,6.422,6.422,0,0,1-1.009.414.921.921,0,0,0-.548.467l-.586,1.172a.916.916,0,0,1-1.643,0l-.584-1.167a.921.921,0,0,0-.543-.466,6.444,6.444,0,0,1-1.009-.419.921.921,0,0,0-.716-.058l-1.242.414A.915.915,0,0,1,4.314,15.3s0,0,0,0l.412-1.239a.921.921,0,0,0-.056-.71,6.439,6.439,0,0,1-.414-1.007.921.921,0,0,0-.464-.547l-1.174-.59h0a.915.915,0,0,1,0-1.642l1.169-.584a.921.921,0,0,0,.466-.543A6.44,6.44,0,0,1,4.67,7.434a.921.921,0,0,0,.058-.714L4.314,5.476s0,0,0,0a.915.915,0,0,1,1.16-1.162l1.241.414a.921.921,0,0,0,.71-.054A6.427,6.427,0,0,1,8.432,4.26a.921.921,0,0,0,.548-.467l.588-1.176A.916.916,0,0,1,10.4,2.106Zm0,3.681a4.6,4.6,0,1,0,4.6,4.6A4.62,4.62,0,0,0,10.394,5.787Zm0,1.841a2.763,2.763,0,1,1-2.767,2.76A2.743,2.743,0,0,1,10.394,7.628Z" transform="translate(-0.265 -0.265)" fill="#718791" fill-rule="evenodd"/>
</svg>
