<svg xmlns="http://www.w3.org/2000/svg" width="7.552" height="7.276" viewBox="0 0 7.552 7.276">
  <path id="star_4_" data-name="star(4)" d="M6.518,2.858a.347.347,0,0,0-.3-.239L4.333,2.448,3.587.7a.347.347,0,0,0-.639,0L2.2,2.448.316,2.619a.348.348,0,0,0-.2.608l1.426,1.25-.42,1.852A.347.347,0,0,0,1.64,6.7l1.627-.972L4.894,6.7a.347.347,0,0,0,.517-.375L4.99,4.477l1.426-1.25a.347.347,0,0,0,.1-.369Zm0,0" transform="translate(0.509 0.009)" fill="none" stroke="#ffc107" stroke-linecap="round" stroke-linejoin="round" stroke-width="1"/>
</svg>
