<svg xmlns="http://www.w3.org/2000/svg" width="20.501" height="19.223" viewBox="0 0 20.501 19.223">
  <g id="store" transform="translate(-0.25 -1.34)">
    <path id="Path_37765" data-name="Path 37765" d="M18.178,26.738H5.32a1.963,1.963,0,0,1-2.01-1.9V17.323a.743.743,0,1,1,1.487,0v7.512a.482.482,0,0,0,.523.416H18.178a.482.482,0,0,0,.523-.416V17.323a.743.743,0,1,1,1.487,0v7.512a1.963,1.963,0,0,1-2.01,1.9Z" transform="translate(-1.24 -6.176)" fill="#718791"/>
    <path id="Path_37766" data-name="Path 37766" d="M12.466,12.021a2.54,2.54,0,0,1-1.362-.4l-.595-.4a1.017,1.017,0,0,0-1.076,0l-.654.393a2.516,2.516,0,0,1-2.843-.178,1.023,1.023,0,0,0-1.189-.065l-.25.155a2.492,2.492,0,0,1-3.009-.28l-.44-.4a2.516,2.516,0,0,1-.8-1.85V7.507A3.7,3.7,0,0,1,.7,5.771L2.112,3.089A3.235,3.235,0,0,1,4.931,1.34H16.088a3.235,3.235,0,0,1,2.819,1.749l1.415,2.682a3.7,3.7,0,0,1,.428,1.737V8.869a2.51,2.51,0,0,1-1,2L19,11.427a2.492,2.492,0,0,1-3.087-.065l-.149-.113a1.023,1.023,0,0,0-1.189-.083l-.833.506a2.468,2.468,0,0,1-1.279.351ZM9.944,9.577a2.5,2.5,0,0,1,1.362.4l.595.393a1.017,1.017,0,0,0,1.076,0l.839-.511a2.51,2.51,0,0,1,2.884.208l.167.137a1,1,0,0,0,1.249,0l.749-.559h0a1.011,1.011,0,0,0,.416-.779V7.507a2.183,2.183,0,0,0-.256-1.017l-1.433-2.7a1.731,1.731,0,0,0-1.5-.963H4.931a1.731,1.731,0,0,0-1.5.963L1.993,6.49a2.183,2.183,0,0,0-.256,1.035V9.012a1.041,1.041,0,0,0,.321.743l.44.4a1.011,1.011,0,0,0,1.225.113l.25-.155a2.5,2.5,0,0,1,2.873.161A1.023,1.023,0,0,0,8,10.35l.648-.393a2.468,2.468,0,0,1,1.3-.381Z" transform="translate(0 0)" fill="#718791"/>
    <path id="Path_37767" data-name="Path 37767" d="M19.906,11.107H1.623a.743.743,0,0,1,0-1.487H19.906a.743.743,0,1,1,0,1.487ZM13.144,23.573a.743.743,0,0,1-.743-.743V19.213a.654.654,0,0,0-.654-.654H9.783a.654.654,0,0,0-.654.654v3.616a.743.743,0,1,1-1.487,0V19.213a2.147,2.147,0,0,1,2.141-2.141h1.963a2.147,2.147,0,0,1,2.141,2.141v3.616A.743.743,0,0,1,13.144,23.573Z" transform="translate(-0.255 -3.356)" fill="#718791"/>
  </g>
</svg>
