<svg xmlns="http://www.w3.org/2000/svg" xmlns:xlink="http://www.w3.org/1999/xlink" width="24" height="24" viewBox="0 0 24 24">
  <defs>
    <clipPath id="clip-tutorials-default">
      <rect width="24" height="24"/>
    </clipPath>
  </defs>
  <g id="tutorials-default" clip-path="url(#clip-tutorials-default)">
    <g id="youtube_youtuber_video_play" data-name="youtube youtuber video play" transform="translate(-1.161 -2.137)">
      <path id="Path_37816" data-name="Path 37816" d="M24.295,10.8a4.556,4.556,0,0,0-4.236-4.548,138.28,138.28,0,0,0-13.85-.016A4.569,4.569,0,0,0,1.956,10.8a34.857,34.857,0,0,0,0,6.957,4.244,4.244,0,0,0,4.212,4.252h0q3.47.191,6.957.191t6.917-.183a4.26,4.26,0,0,0,4.252-4.2,25.267,25.267,0,0,0,0-7.021Zm-1.6,6.885a.391.391,0,0,0,0,.1,2.681,2.681,0,0,1-2.7,2.665,132.436,132.436,0,0,1-13.786,0A2.681,2.681,0,0,1,3.552,17.7a33.508,33.508,0,0,1,0-6.757.359.359,0,0,0,0-.088,3.016,3.016,0,0,1,2.7-3.024c2.282-.1,4.579-.152,6.877-.152s4.6.048,6.877.152h.04A3.012,3.012,0,0,1,22.7,10.857a.606.606,0,0,0,0,.12,24.022,24.022,0,0,1,0,6.694Z" transform="translate(0 0)" fill="#718791"/>
      <path id="Path_37817" data-name="Path 37817" d="M19.045,14.743l-5.7-2.936a.8.8,0,0,0-.734,1.42l4.332,2.226L13.756,17.1V15.453a.8.8,0,1,0-1.6,0v2.968a.8.8,0,0,0,1.165.71l5.7-2.968a.811.811,0,0,0,.024-1.42Z" transform="translate(-2.098 -1.141)" fill="#718791"/>
    </g>
  </g>
</svg>
