<svg xmlns="http://www.w3.org/2000/svg" width="10.965" height="8.9" viewBox="0 0 10.965 8.9">
  <path id="Path_37568" data-name="Path 37568" d="M120.107,59.393a6.4,6.4,0,0,0,9.834-5.683,4.622,4.622,0,0,0,1.123-1.167,4.518,4.518,0,0,1-1.291.357,2.225,2.225,0,0,0,.985-1.24,4.65,4.65,0,0,1-1.43.547,2.25,2.25,0,0,0-3.83,2.05,6.4,6.4,0,0,1-4.632-2.349,2.244,2.244,0,0,0,.693,3,2.207,2.207,0,0,1-1.021-.285,2.253,2.253,0,0,0,1.8,2.232,2.25,2.25,0,0,1-1.014.036,2.248,2.248,0,0,0,2.1,1.561,4.521,4.521,0,0,1-3.327.934Z" transform="translate(-120.1 -51.5)" fill="#fff"/>
</svg>
