<svg xmlns="http://www.w3.org/2000/svg" width="21.192" height="21.192" viewBox="0 0 21.192 21.192">
  <path id="website" d="M11.1.5a10.6,10.6,0,1,0,10.6,10.6A10.608,10.608,0,0,0,11.1.5Zm4.548,12.734c.059-.705.091-1.421.091-2.137s-.032-1.432-.091-2.137c2.61.568,4,1.543,4,2.137S18.254,12.665,15.644,13.234ZM11.1,19.642c-.595,0-1.569-1.387-2.137-4,.705.059,1.421.091,2.137.091s1.432-.032,2.137-.091C12.665,18.254,11.691,19.642,11.1,19.642Zm0-5.957a23.972,23.972,0,0,1-2.462-.126,24.166,24.166,0,0,1,0-4.924,24.166,24.166,0,0,1,4.924,0,23.972,23.972,0,0,1,.126,2.462,23.972,23.972,0,0,1-.126,2.462A23.97,23.97,0,0,1,11.1,13.684ZM2.551,11.1c0-.595,1.387-1.569,4-2.137-.059.705-.091,1.421-.091,2.137s.032,1.432.091,2.137C3.938,12.665,2.551,11.691,2.551,11.1ZM11.1,2.551c.595,0,1.569,1.387,2.137,4-.705-.059-1.421-.091-2.137-.091s-1.432.032-2.137.091C9.527,3.938,10.5,2.551,11.1,2.551Zm7.926,5.367a14.762,14.762,0,0,0-3.655-1.093A14.761,14.761,0,0,0,14.274,3.17,8.584,8.584,0,0,1,19.022,7.918ZM7.918,3.17A14.762,14.762,0,0,0,6.825,6.825,14.76,14.76,0,0,0,3.17,7.918,8.584,8.584,0,0,1,7.918,3.17ZM3.17,14.274a14.76,14.76,0,0,0,3.655,1.093,14.76,14.76,0,0,0,1.093,3.655A8.584,8.584,0,0,1,3.17,14.274Zm11.1,4.748a14.76,14.76,0,0,0,1.093-3.655,14.762,14.762,0,0,0,3.655-1.093A8.584,8.584,0,0,1,14.274,19.022Z" transform="translate(-0.5 -0.5)" fill="#718791"/>
</svg>
