<svg xmlns="http://www.w3.org/2000/svg" width="21.795" height="14.984" viewBox="0 0 21.795 14.984">
  <g id="youtube" transform="translate(0 -80)">
    <path id="Path_31728" data-name="Path 31728" d="M20.869,81.444c-.591-1.052-1.233-1.245-2.539-1.319S13.743,80,10.9,80s-6.131.037-7.435.124-1.947.267-2.543,1.32S0,84.3,0,87.488V87.5c0,3.171.313,4.994.922,6.033s1.238,1.242,2.542,1.331,4.588.121,7.436.121,6.125-.045,7.431-.12,1.948-.279,2.539-1.331c.614-1.039.925-2.862.925-6.033v-.011C21.8,84.3,21.485,82.494,20.869,81.444Z" fill="#f44336"/>
    <path id="Path_31729" data-name="Path 31729" d="M192,168.173V160l6.811,4.087Z" transform="translate(-183.827 -76.594)" fill="#fafafa"/>
  </g>
</svg>
